<?xml version="1.0" standalone="no"?>
<!DOCTYPE svg PUBLIC "-//W3C//DTD SVG 20010904//EN"
 "http://www.w3.org/TR/2001/REC-SVG-20010904/DTD/svg10.dtd">
<svg version="1.0" xmlns="http://www.w3.org/2000/svg"
 width="2560.000000pt" height="1600.000000pt" viewBox="0 0 2560.000000 1600.000000"
 preserveAspectRatio="xMidYMid meet">
<metadata>
Created by potrace 1.15, written by Peter Selinger 2001-2017
</metadata>
<g transform="translate(0.000000,1600.000000) scale(0.100000,-0.100000)"
fill="#000000" stroke="none">
<path d="M10618 15285 c-54 -7 -107 -17 -118 -20 -12 -4 -38 -9 -58 -11 -20
-3 -53 -9 -72 -15 -19 -6 -48 -13 -65 -15 -58 -10 -197 -54 -213 -66 -8 -7
-18 -12 -21 -10 -11 6 -91 -21 -91 -30 0 -5 -5 -6 -11 -2 -6 3 -14 1 -18 -5
-4 -6 -16 -13 -27 -15 -80 -16 -404 -231 -388 -258 3 -5 2 -7 -3 -6 -4 2 -18
-7 -31 -19 -12 -13 -20 -23 -18 -23 2 0 -9 -14 -25 -31 -16 -17 -26 -35 -23
-40 3 -5 0 -8 -8 -7 -7 2 -12 -5 -12 -14 1 -10 -1 -16 -5 -13 -21 12 -86 -174
-95 -271 -5 -56 -22 -103 -62 -176 -23 -42 -121 -112 -220 -158 -49 -22 -90
-40 -92 -40 -7 4 -119 -45 -134 -58 -10 -8 -18 -12 -18 -7 0 4 -6 3 -12 -3 -7
-6 -16 -11 -20 -12 -38 -9 -47 -14 -41 -23 3 -6 1 -7 -6 -3 -7 5 -27 -4 -48
-20 -20 -15 -32 -21 -28 -13 6 9 -1 7 -20 -6 -33 -21 -102 -61 -125 -72 -21
-10 -191 -128 -216 -150 -11 -10 -29 -23 -40 -30 -10 -6 -18 -16 -16 -23 1 -6
-2 -9 -7 -6 -9 6 -208 -185 -256 -245 -109 -136 -225 -314 -228 -350 -1 -10
-4 -16 -8 -14 -3 3 -11 -7 -18 -21 -9 -20 -9 -24 1 -18 7 4 5 -2 -5 -13 -9
-11 -14 -23 -10 -26 3 -4 2 -7 -4 -7 -6 0 -13 -8 -16 -17 -4 -10 -13 -36 -22
-58 -9 -22 -18 -47 -20 -55 -2 -8 -11 -35 -19 -59 -9 -24 -18 -58 -21 -75 -3
-17 -12 -60 -20 -96 -9 -36 -18 -99 -20 -140 -3 -41 -8 -82 -10 -91 -3 -9 -1
-35 4 -58 6 -27 5 -39 -1 -35 -6 4 -8 -2 -6 -12 3 -11 -5 -37 -16 -59 -11 -22
-20 -44 -21 -50 0 -5 -5 -10 -12 -10 -6 0 -27 -15 -47 -33 -20 -18 -36 -30
-36 -26 0 3 -11 -1 -25 -10 -14 -9 -25 -14 -25 -12 0 11 -80 -30 -136 -70 -63
-44 -129 -116 -117 -128 3 -3 1 -6 -5 -6 -13 0 -47 -60 -35 -60 5 0 2 -4 -5
-9 -7 -4 -14 -24 -15 -43 -1 -20 -6 -34 -10 -31 -5 3 -8 -8 -6 -23 1 -16 -1
-42 -6 -57 -9 -35 10 -190 31 -249 9 -23 17 -47 18 -53 1 -5 4 -14 7 -20 34
-57 36 -260 4 -329 -10 -21 -18 -44 -18 -52 0 -8 -3 -12 -5 -9 -8 8 -51 -69
-45 -79 4 -5 1 -6 -5 -2 -6 3 -16 -3 -22 -15 -7 -11 -32 -40 -57 -62 -80 -75
-98 -92 -133 -132 -43 -49 -95 -129 -78 -120 7 4 3 -2 -9 -12 -21 -17 -73
-110 -73 -130 0 -5 -9 -28 -21 -52 -11 -23 -21 -57 -22 -74 -2 -18 -6 -37 -9
-43 -15 -23 -29 -193 -23 -274 12 -150 58 -350 98 -425 6 -11 11 -22 12 -25 1
-20 29 -89 34 -85 4 2 8 -6 8 -17 1 -11 9 -28 17 -37 9 -10 16 -23 16 -30 0
-7 5 -9 12 -5 7 4 8 3 4 -4 -4 -6 0 -22 8 -34 20 -31 19 -178 0 -218 -8 -16
-16 -48 -18 -72 -2 -24 -7 -51 -11 -61 -19 -45 6 -293 49 -477 23 -100 29
-119 36 -115 5 3 6 -4 3 -15 -3 -11 0 -20 6 -20 5 0 8 -7 5 -15 -4 -8 -1 -15
6 -15 6 0 8 -4 5 -10 -3 -5 1 -24 9 -42 46 -103 49 -188 11 -301 -13 -39 -22
-74 -20 -78 3 -4 -2 -9 -10 -13 -8 -3 -15 -12 -15 -19 0 -8 -6 -20 -14 -26
-21 -17 -67 -119 -69 -152 -1 -16 -5 -29 -8 -29 -12 0 -28 -173 -24 -263 6
-141 14 -220 24 -230 5 -5 7 -16 4 -23 -11 -29 93 -443 154 -614 3 -8 7 -25 9
-38 1 -12 8 -56 14 -97 9 -58 8 -93 -1 -152 -15 -91 -17 -455 -2 -460 5 -2 7
-20 5 -40 -3 -24 -1 -34 7 -29 7 4 9 1 5 -8 -7 -18 45 -233 60 -250 6 -6 12
-19 14 -30 6 -35 21 -66 32 -66 6 0 9 -4 5 -10 -6 -9 43 -104 76 -147 9 -12
20 -19 24 -15 5 4 5 1 1 -6 -8 -13 2 -26 89 -116 70 -72 132 -126 145 -126 5
0 10 -3 10 -8 0 -10 71 -48 83 -44 5 1 6 -2 2 -8 -6 -9 -1 -12 28 -14 24 -2
160 -164 163 -195 1 -13 26 -127 31 -141 3 -8 5 -86 4 -172 0 -87 3 -158 7
-158 4 0 8 -20 8 -44 1 -25 5 -53 9 -63 4 -10 9 -31 11 -48 3 -16 9 -32 14
-33 6 -2 8 -7 5 -12 -14 -23 99 -268 175 -383 22 -33 40 -62 40 -66 0 -4 14
-21 30 -39 17 -18 30 -37 30 -41 0 -12 36 -42 43 -36 4 3 5 2 2 -1 -7 -11 36
-65 46 -58 5 3 8 1 7 -4 -2 -5 18 -29 43 -53 25 -25 58 -62 72 -84 30 -45 67
-146 67 -182 0 -12 3 -23 8 -23 4 0 8 -28 10 -61 1 -34 4 -65 7 -69 3 -5 7
-64 10 -132 6 -148 6 -132 -1 -190 -7 -55 13 -221 27 -226 5 -2 7 -7 4 -12 -3
-5 0 -21 6 -37 7 -15 14 -37 16 -48 2 -10 10 -30 18 -42 9 -13 13 -23 10 -23
-6 0 34 -79 45 -90 3 -3 18 -25 35 -50 31 -48 190 -210 205 -210 5 0 16 -9 24
-21 9 -13 19 -18 28 -13 7 4 10 3 5 -1 -9 -11 43 -46 57 -38 6 3 8 3 4 -2 -13
-14 118 -89 135 -78 6 3 7 1 4 -4 -6 -9 39 -29 51 -23 2 1 9 -5 15 -13 10 -12
63 -35 102 -43 6 -1 32 -12 58 -24 27 -12 55 -19 63 -16 8 3 14 2 14 -3 0 -10
160 -44 253 -53 9 -1 17 -6 17 -11 0 -5 7 -7 15 -3 8 3 15 2 15 -3 0 -10 71
-32 82 -25 4 3 8 0 8 -6 0 -6 4 -9 9 -6 4 3 25 -3 46 -14 21 -11 42 -17 46
-14 5 3 9 0 9 -5 0 -6 4 -11 10 -11 5 0 64 -27 131 -60 67 -33 127 -57 133
-53 6 3 8 2 3 -2 -4 -5 17 -22 45 -38 29 -16 62 -34 73 -41 11 -6 36 -22 54
-35 19 -14 31 -18 27 -10 -5 7 3 2 18 -13 15 -16 31 -28 36 -28 4 0 31 -18 59
-40 28 -22 54 -40 59 -40 5 0 17 -9 27 -20 10 -11 22 -17 28 -13 5 3 7 2 4 -4
-12 -19 264 -210 285 -197 6 4 8 3 5 -3 -6 -10 149 -83 176 -83 7 0 17 -3 21
-7 4 -5 11 -8 14 -9 4 0 14 -3 22 -7 44 -17 91 -28 99 -23 5 4 11 2 13 -3 4
-13 253 -53 305 -49 24 2 43 0 43 -4 0 -11 166 -10 295 2 226 21 373 57 450
110 22 15 43 27 46 26 20 -4 192 161 183 176 -4 6 -3 8 3 5 6 -4 18 4 27 18 9
14 13 25 9 25 -3 0 3 10 14 23 24 26 62 98 66 126 2 10 8 25 14 33 7 7 14 25
16 38 2 14 7 32 10 40 4 8 13 55 22 104 13 78 15 787 15 6240 0 6024 -1 6356
-29 6356 -3 0 -7 15 -8 33 -2 45 -55 157 -88 185 -28 24 -123 55 -139 45 -5
-4 -6 -1 -1 7 5 8 3 11 -6 8 -16 -5 -129 99 -129 119 0 7 -4 13 -10 13 -5 0
-10 7 -10 16 0 9 -5 12 -12 8 -6 -4 -8 -3 -5 4 4 5 -4 32 -17 59 -13 26 -31
80 -41 118 -9 39 -19 77 -22 85 -3 8 -6 33 -8 55 -4 50 -45 175 -57 175 -5 0
-6 4 -3 10 9 14 -60 115 -129 187 -82 86 -317 226 -348 207 -6 -4 -8 -3 -4 4
5 9 -34 25 -69 27 -5 1 -20 7 -33 14 -13 7 -39 13 -58 14 -19 1 -34 6 -34 10
0 5 -8 7 -17 6 -10 -2 -27 0 -39 4 -11 4 -41 9 -65 11 -24 2 -51 6 -59 10 -59
21 -437 29 -562 11z m786 -365 c33 -12 61 -69 52 -105 -4 -15 -18 -38 -32 -52
-25 -25 -29 -26 -112 -20 -48 4 -136 17 -197 29 -100 20 -144 23 -486 25
l-376 3 -282 -202 -281 -203 0 -317 c0 -224 3 -318 11 -318 6 0 48 26 92 57
45 31 132 91 192 133 71 49 153 119 230 196 192 194 242 218 307 154 27 -27
30 -36 25 -71 -3 -22 -13 -49 -22 -59 -18 -20 -214 -122 -315 -164 -37 -15
-163 -96 -290 -184 l-225 -157 -3 -193 -2 -193 -156 -102 -156 -102 1 -176 c2
-156 0 -178 -16 -197 -10 -12 -225 -160 -478 -330 l-460 -308 -3 -229 -2 -230
705 -527 705 -527 0 -653 0 -653 -225 -170 -224 -170 -1 -315 c0 -246 3 -331
15 -389 30 -140 45 -286 34 -324 -12 -44 -42 -67 -87 -67 -44 0 -68 14 -87 50
-14 27 -14 42 0 153 8 67 23 151 32 187 13 52 17 134 20 401 l4 337 224 168
224 169 1 621 0 620 -705 528 -705 528 0 263 0 262 478 320 477 320 3 189 3
189 154 100 155 100 0 557 0 556 158 114 c86 63 222 162 302 219 l145 104 395
5 c324 5 408 9 467 23 134 32 273 44 317 27z m367 -189 c35 -35 39 -86 10
-123 -20 -25 -210 -127 -316 -169 -52 -21 -181 -105 -650 -425 -60 -41 -220
-150 -355 -242 -135 -92 -269 -183 -297 -201 l-53 -34 0 -593 0 -593 308 -237
c233 -179 327 -246 388 -274 102 -47 264 -142 287 -168 10 -11 20 -35 24 -54
4 -29 0 -41 -25 -69 -24 -27 -37 -34 -69 -34 -32 0 -49 9 -97 50 -32 28 -100
97 -151 155 -80 90 -140 140 -412 350 l-318 245 0 629 0 629 195 133 c107 73
258 176 335 228 77 52 199 134 270 183 72 49 216 147 320 218 152 103 211 151
295 235 193 196 248 224 311 161z m-842 -89 c45 -33 71 -81 71 -129 0 -153
-193 -216 -281 -91 -33 46 -33 130 0 177 48 67 150 88 210 43z m807 -541 c21
-15 92 -83 158 -150 79 -83 161 -154 250 -219 72 -52 166 -122 209 -154 l77
-59 0 -477 0 -478 -37 -36 c-21 -20 -126 -111 -233 -203 -107 -91 -196 -172
-198 -179 -2 -7 74 -70 168 -141 l170 -127 0 -2767 c0 -2199 -3 -2770 -12
-2783 -7 -8 -188 -155 -403 -326 -218 -174 -403 -329 -419 -351 -16 -23 -78
-88 -136 -146 -97 -95 -110 -105 -144 -105 -75 0 -122 88 -80 148 21 30 104
83 256 161 113 59 165 97 484 351 197 157 366 293 376 303 17 16 18 134 18
2746 l0 2729 -606 453 c-334 250 -616 458 -628 463 -139 61 -308 157 -348 197
-39 38 -38 90 1 130 49 48 86 41 168 -31 37 -33 102 -99 143 -146 64 -73 136
-132 490 -396 228 -171 421 -311 428 -312 7 -1 116 87 242 194 l229 195 1 190
0 191 -211 148 c-116 81 -229 154 -251 162 -80 28 -299 148 -323 176 -66 78
13 185 109 149 15 -6 92 -75 169 -153 78 -77 179 -167 225 -200 191 -135 256
-180 269 -185 10 -4 13 36 13 210 l0 215 -198 146 c-114 83 -221 154 -253 166
-61 24 -220 107 -278 146 -67 44 -77 109 -26 160 33 33 81 32 131 -5z m-418
-84 c27 -28 32 -85 10 -119 -19 -29 -142 -94 -285 -152 -71 -28 -157 -75 -244
-131 -74 -48 -200 -131 -281 -184 l-148 -96 0 -242 0 -242 198 -151 c842 -641
940 -713 1009 -745 107 -49 268 -142 297 -172 74 -74 -17 -198 -110 -150 -28
15 -220 205 -260 259 -19 24 -258 208 -899 692 -137 104 -262 200 -277 214
l-28 26 0 266 c0 198 3 270 13 282 6 9 138 98 292 198 219 143 299 201 370
269 112 107 192 175 231 196 36 20 81 12 112 -18z m-2175 -408 c34 -37 35 -78
3 -116 -25 -30 -236 -139 -321 -167 -27 -9 -114 -60 -192 -114 -79 -53 -271
-184 -428 -290 l-285 -193 0 -964 0 -964 108 -84 c59 -46 217 -168 350 -271
l244 -186 283 0 c249 0 284 -2 289 -16 3 -9 6 -148 6 -309 l0 -293 -390 -268
-390 -268 0 -692 0 -692 -44 -39 c-24 -21 -87 -72 -139 -113 l-96 -75 2 -320
2 -319 235 -184 c129 -101 302 -235 383 -298 l148 -114 169 0 170 0 168 131
c106 83 191 158 233 207 80 93 216 217 254 232 39 15 86 -3 108 -39 51 -86 -9
-143 -283 -269 -60 -28 -134 -78 -251 -170 -92 -71 -177 -137 -190 -146 -20
-13 -54 -16 -214 -16 l-190 0 -105 83 c-58 45 -237 185 -397 310 -161 126
-297 237 -303 247 -6 11 -10 148 -10 353 l0 335 38 33 c21 19 84 70 140 114
l101 80 3 699 3 700 185 128 c102 70 276 190 387 265 l203 138 0 260 0 260
-257 -2 c-194 -2 -264 1 -283 11 -14 7 -144 104 -290 216 -146 112 -307 236
-357 275 l-93 70 3 999 2 1000 80 56 c44 31 235 161 425 290 293 198 362 249
455 339 218 211 260 231 328 160z m2147 -231 c69 -47 91 -144 48 -208 -38 -55
-73 -75 -133 -75 -153 0 -213 198 -86 282 47 32 125 32 171 1z m-2150 -265
c27 -35 26 -84 -4 -116 -26 -28 -236 -135 -327 -166 -30 -10 -129 -67 -220
-126 -90 -59 -217 -141 -281 -183 l-118 -77 0 -731 c0 -576 3 -733 13 -737 6
-3 134 -98 282 -211 l270 -206 351 0 c312 0 353 -2 358 -16 3 -9 6 -242 6
-518 l0 -503 -22 -20 c-13 -11 -171 -121 -353 -245 -181 -124 -358 -245 -392
-269 l-63 -43 0 -880 1 -881 132 -97 132 -98 240 0 240 0 255 199 c140 110
256 205 258 210 3 8 -92 11 -301 11 l-304 0 -189 146 c-104 81 -201 158 -216
172 l-28 26 0 332 c0 263 -3 347 -15 399 -17 70 -45 271 -45 316 0 35 42 85
76 92 38 7 80 -10 100 -40 14 -22 15 -41 10 -122 -4 -53 -17 -141 -29 -196
-19 -89 -22 -135 -24 -430 l-2 -330 192 -147 192 -148 755 0 c490 0 767 4 790
10 48 15 277 50 322 50 81 0 130 -57 108 -126 -24 -73 -110 -80 -367 -28 -117
23 -140 24 -507 24 l-385 0 -118 -93 c-65 -52 -205 -162 -312 -245 l-193 -152
-262 0 -261 0 -50 38 c-27 20 -98 73 -158 116 l-107 79 2 916 3 916 255 175
c140 97 326 224 413 283 l157 108 0 474 0 475 -339 0 -339 0 -293 222 c-162
122 -297 226 -301 232 -4 6 -8 352 -8 769 l0 758 163 106 c89 58 221 144 292
190 80 52 163 117 215 167 126 122 215 196 247 205 36 10 78 -5 103 -36z m726
6 c12 -11 24 -32 27 -46 7 -35 -19 -240 -43 -341 -18 -75 -20 -120 -20 -445
l1 -362 82 -61 c45 -34 259 -195 475 -358 l393 -296 622 -2 622 -3 3 -2270 2
-2270 -182 -128 c-101 -71 -379 -266 -618 -433 -239 -168 -478 -336 -530 -373
-52 -37 -233 -164 -402 -281 l-308 -215 0 -192 0 -191 48 -34 c26 -19 239
-169 475 -333 l427 -298 0 -562 0 -563 558 -424 c386 -294 572 -430 607 -443
69 -25 241 -112 292 -146 67 -46 68 -130 2 -164 -65 -34 -104 -12 -279 163
-113 113 -221 198 -955 756 -143 109 -268 207 -277 218 -17 19 -18 62 -19 577
l0 556 -446 310 c-245 171 -459 321 -474 333 l-29 24 0 217 c0 159 3 221 13
233 6 9 127 96 267 194 140 98 314 219 385 269 388 272 917 643 965 677 30 21
134 93 230 161 l175 124 3 2222 2 2221 -592 1 c-326 1 -596 1 -600 0 -6 -1
-958 710 -993 741 -6 6 -12 166 -16 421 -5 369 -8 424 -28 527 -30 159 -32
251 -6 280 40 45 99 48 141 9z m1791 -20 c47 -29 77 -90 70 -147 -12 -106
-112 -166 -212 -127 -117 44 -131 209 -23 275 45 27 120 27 165 -1z m344 -262
c49 -32 83 -105 74 -159 -10 -55 -65 -113 -118 -123 -59 -11 -107 3 -148 43
-51 51 -59 105 -27 170 30 61 76 92 138 92 32 0 58 -7 81 -23z m-2855 -770
c42 -24 132 -110 210 -198 83 -96 74 -89 974 -759 173 -129 454 -339 625 -467
l310 -232 238 -1 237 0 0 83 c0 46 -9 123 -19 172 -32 152 -45 290 -31 326 26
63 118 76 160 22 14 -18 20 -40 20 -76 0 -60 -26 -241 -46 -318 -8 -31 -14
-102 -14 -158 0 -89 -2 -101 -19 -111 -27 -14 -526 -14 -552 1 -11 6 -163 117
-337 247 -174 129 -411 306 -527 392 -115 86 -379 282 -585 436 -334 249 -391
287 -520 352 -165 83 -236 131 -251 169 -23 62 23 126 96 131 6 1 19 -4 31
-11z m-383 -101 c52 -22 89 -68 94 -120 7 -58 -1 -87 -32 -125 -38 -45 -101
-66 -155 -51 -121 33 -159 171 -70 260 50 50 103 62 163 36z m-1189 -117 c44
-35 48 -59 31 -193 -9 -66 -23 -149 -31 -184 -11 -50 -14 -158 -14 -527 0
-426 -1 -464 -17 -483 -10 -11 -137 -109 -283 -217 -146 -109 -266 -199 -268
-200 -2 -2 -4 -420 -2 -488 0 -10 39 -59 88 -110 48 -51 104 -111 125 -135
l37 -42 0 -366 c0 -286 3 -378 14 -423 17 -65 46 -266 46 -317 0 -50 -45 -94
-95 -94 -27 0 -44 8 -67 31 l-31 30 7 96 c4 52 16 141 29 197 20 92 22 134 25
464 l2 363 -125 132 -125 132 0 280 0 281 285 213 285 214 0 434 c0 349 -3
446 -15 492 -21 82 -45 237 -47 315 -3 65 -2 69 30 97 39 35 78 38 116 8z
m1679 -253 c18 -7 95 -78 172 -158 77 -80 172 -170 210 -200 39 -29 162 -124
275 -209 113 -86 510 -388 883 -672 613 -467 690 -523 798 -576 227 -113 279
-154 279 -218 0 -48 -45 -93 -94 -93 -30 0 -47 11 -110 68 -41 37 -110 107
-153 155 -54 62 -132 130 -258 226 -204 155 -821 626 -1055 803 l-155 117 -3
-427 c-1 -235 0 -432 2 -438 3 -7 236 -193 518 -415 282 -221 537 -422 566
-446 l52 -45 0 -427 c0 -326 -3 -431 -12 -443 -7 -9 -116 -111 -242 -227
l-230 -211 -457 0 c-443 0 -459 1 -469 19 -6 12 -10 138 -10 338 -1 241 -4
333 -15 378 -8 33 -22 117 -31 186 -14 117 -14 129 1 159 10 18 31 38 51 46
32 14 39 13 72 -3 25 -12 40 -28 47 -50 14 -41 1 -173 -28 -303 -18 -83 -21
-133 -24 -397 -4 -286 -3 -303 14 -303 241 -4 796 -4 810 0 11 3 118 95 237
205 l216 199 -2 405 -3 406 -547 430 c-301 236 -557 438 -568 447 -20 17 -20
28 -20 496 l0 479 -225 171 c-173 132 -247 182 -320 216 -123 58 -259 140
-285 173 -38 48 -18 119 40 142 34 13 36 13 73 -3z m-542 -474 c90 -35 116
-169 49 -246 -116 -131 -325 5 -256 167 34 79 120 112 207 79z m2755 -203
c126 -61 108 -250 -28 -287 -73 -20 -144 13 -178 82 -25 53 -25 86 0 136 42
82 124 109 206 69z m-999 -638 c97 -45 117 -175 37 -252 -29 -28 -42 -33 -91
-36 -44 -3 -67 1 -93 15 -38 21 -80 90 -80 131 0 47 42 114 85 138 49 28 87
28 142 4z m-2752 -135 c19 -8 41 -28 50 -45 14 -29 14 -42 0 -154 -9 -67 -24
-153 -33 -192 -15 -62 -17 -161 -20 -876 l-2 -806 -235 -179 -235 -179 0 -208
c0 -115 4 -207 8 -205 5 2 191 140 415 307 l407 303 0 557 c0 355 -4 569 -10
591 -21 71 -60 315 -60 377 0 12 13 37 29 55 24 27 36 33 71 33 34 0 47 -6 67
-30 25 -28 26 -33 20 -125 -3 -52 -15 -140 -26 -195 -20 -94 -21 -136 -21
-698 l0 -597 -450 -337 -450 -336 0 -388 0 -389 188 0 188 0 469 -347 c259
-190 574 -422 700 -516 127 -93 233 -176 237 -186 4 -9 7 -242 6 -519 0 -277
1 -504 3 -506 2 -2 230 -173 507 -380 l502 -377 0 -154 0 -155 -37 -42 c-21
-24 -68 -75 -105 -114 l-68 -72 0 -235 c0 -199 3 -248 20 -319 11 -46 26 -137
34 -202 16 -128 11 -163 -29 -196 -30 -25 -91 -19 -122 13 -26 26 -28 33 -26
100 1 40 12 124 24 187 18 94 23 166 28 397 l6 282 25 28 c14 15 60 65 103
110 l77 83 0 128 0 128 -505 378 -505 379 0 516 -1 516 -127 92 c-70 51 -188
138 -262 193 -144 107 -369 273 -480 355 -37 28 -112 83 -167 122 -54 40 -150
111 -213 158 l-115 85 -197 0 c-165 0 -199 3 -212 16 -14 14 -16 90 -16 693
l0 677 103 79 c56 44 162 125 235 180 l132 100 -3 810 c-2 773 -4 815 -24 925
-35 193 -36 232 -10 271 12 18 33 36 47 40 14 4 26 7 28 8 1 1 18 -5 37 -13z
m784 -125 c119 -85 58 -281 -88 -281 -47 0 -103 26 -128 59 -21 26 -35 92 -28
127 7 41 49 92 90 110 42 20 116 12 154 -15z m395 -4 c20 -16 41 -45 51 -72
23 -59 8 -119 -42 -167 -32 -31 -38 -33 -103 -33 -65 0 -71 2 -105 35 -63 61
-68 145 -13 215 48 61 147 71 212 22z m1879 19 c47 -19 85 -68 93 -121 14 -94
-59 -175 -156 -175 -160 0 -211 225 -66 291 49 22 85 24 129 5z m-3383 -115
c44 -35 63 -74 62 -128 0 -58 -32 -107 -88 -133 -79 -39 -164 -9 -204 70 -24
47 -25 77 -4 130 38 94 153 124 234 61z m3728 -148 c68 -51 88 -123 53 -195
-38 -80 -145 -113 -219 -68 -101 62 -95 220 10 274 42 21 120 16 156 -11z
m-665 -364 c40 -20 57 -51 57 -104 0 -60 -24 -225 -45 -315 -13 -53 -15 -118
-12 -355 3 -253 6 -302 25 -387 12 -54 25 -140 28 -191 6 -79 4 -98 -10 -120
-52 -79 -176 -36 -176 61 0 46 36 285 50 332 6 20 10 154 10 320 0 246 -3 299
-19 375 -11 50 -25 138 -32 197 -14 126 -5 162 45 184 38 16 52 17 79 3z
m1107 -175 c22 -22 25 -32 24 -97 -2 -75 -26 -233 -50 -327 -12 -45 -14 -195
-14 -860 0 -443 0 -810 0 -817 0 -6 -42 -42 -92 -79 -51 -37 -142 -104 -203
-149 -102 -76 -234 -173 -1185 -872 -195 -144 -424 -312 -508 -375 l-153 -113
0 -524 c0 -288 2 -525 3 -526 2 -1 113 -84 248 -183 135 -99 342 -252 460
-339 l215 -159 3 -885 3 -884 37 -26 c20 -14 165 -120 322 -236 197 -145 303
-217 345 -233 121 -46 297 -144 317 -175 39 -62 -5 -145 -76 -145 -45 0 -95
38 -241 182 -94 92 -192 172 -447 360 l-328 242 0 881 0 881 -465 344 -465
344 2 560 3 561 275 202 c151 112 354 261 450 331 168 124 411 303 1103 812
l317 233 -3 826 c-3 804 -4 829 -25 921 -12 52 -25 139 -28 192 -8 112 3 141
59 157 41 12 66 5 97 -25z m-702 -201 c70 -52 89 -128 50 -202 -55 -105 -206
-110 -268 -9 -27 44 -27 122 0 166 41 67 157 91 218 45z m17 -433 c63 -62 71
-148 18 -211 -50 -60 -124 -74 -194 -39 -104 54 -108 207 -7 271 26 16 45 19
91 16 49 -3 62 -8 92 -37z m-577 -1337 c86 -64 86 -192 0 -256 -16 -12 -48
-22 -80 -25 -59 -4 -102 17 -142 71 -29 39 -28 126 0 164 40 54 83 75 142 71
32 -3 64 -13 80 -25z m440 0 c46 -35 64 -68 65 -120 1 -60 -24 -108 -74 -141
-65 -45 -169 -18 -211 54 -46 81 -15 183 67 221 40 18 120 11 153 -14z m-3011
-381 c38 -33 104 -97 148 -144 61 -64 172 -152 454 -362 206 -153 386 -282
400 -287 16 -6 200 -8 437 -7 l409 3 306 230 c233 176 320 247 368 303 78 91
223 218 255 224 52 10 116 -39 116 -89 0 -63 -47 -99 -259 -201 -122 -59 -169
-90 -448 -299 l-312 -233 -454 0 -455 0 -388 288 c-277 205 -406 295 -449 311
-104 41 -258 125 -297 162 -49 46 -51 87 -9 130 23 22 39 29 70 29 35 0 50 -8
108 -58z m1427 -147 c47 -22 78 -70 84 -127 6 -63 -12 -103 -61 -139 -78 -56
-186 -28 -228 59 -64 131 74 269 205 207z m2127 -121 c32 -34 32 -93 1 -127
-28 -30 -184 -117 -294 -165 -64 -27 -188 -112 -577 -395 -273 -198 -562 -408
-643 -466 l-147 -106 2 -334 2 -335 140 -100 c77 -56 297 -214 490 -352 l350
-250 3 -556 2 -555 158 -121 c364 -282 592 -457 1022 -786 250 -192 467 -360
483 -374 l27 -26 0 -187 0 -187 -97 -85 c-162 -140 -336 -291 -371 -319 l-33
-28 -232 3 -232 2 -350 244 c-192 135 -382 267 -422 295 -40 28 -124 87 -188
131 -63 44 -144 100 -179 125 -35 25 -130 92 -212 148 -82 57 -225 157 -319
223 -93 66 -192 129 -220 142 -144 65 -304 147 -332 171 -28 23 -33 35 -33 69
1 62 36 97 99 97 37 0 115 -62 256 -205 65 -65 146 -133 230 -191 72 -50 249
-174 395 -275 146 -102 400 -279 565 -394 165 -115 399 -278 519 -362 l219
-153 208 0 208 0 229 200 230 199 1 149 2 150 -48 39 c-26 22 -282 219 -568
438 -286 219 -545 418 -575 442 -247 193 -420 323 -429 323 -8 0 -11 -78 -11
-258 l0 -258 376 -280 c511 -380 540 -401 570 -408 39 -10 183 -79 263 -125
78 -46 96 -76 80 -135 -17 -63 -84 -84 -147 -46 -19 12 -95 81 -170 154 -91
89 -200 180 -323 272 -103 77 -307 228 -453 337 l-266 198 0 862 0 862 -147
106 c-657 469 -829 594 -835 603 -4 6 -8 171 -8 367 0 269 3 359 13 371 6 8
143 109 302 225 944 681 1007 729 1089 818 43 47 110 113 148 146 61 52 73 59
112 59 33 0 48 -6 67 -26z m-3881 -419 c22 -23 25 -32 22 -93 -2 -64 -15 -155
-47 -327 -19 -105 -21 -484 -2 -507 12 -16 80 -69 503 -401 139 -108 254 -204
258 -213 3 -8 6 -157 6 -330 l0 -314 370 0 371 0 267 -202 c147 -110 279 -213
295 -226 l27 -26 0 -258 c0 -235 2 -270 25 -381 13 -67 27 -163 31 -214 l7
-92 -31 -30 c-42 -42 -92 -43 -133 -2 -23 24 -29 38 -29 73 0 57 26 237 45
318 12 52 15 116 13 314 l-3 250 -267 203 -268 202 -385 3 c-330 3 -387 5
-395 18 -6 9 -10 153 -10 341 l0 326 -316 249 c-174 137 -347 273 -385 302
l-68 52 -3 263 c-3 222 -7 277 -25 362 -12 55 -26 141 -32 190 -8 78 -7 95 7
125 31 64 101 75 152 25z m4881 -305 c18 -10 19 -24 19 -246 0 -175 4 -251 15
-293 21 -82 45 -252 45 -320 0 -54 -3 -62 -31 -85 -57 -48 -137 -24 -155 48
-8 32 20 240 47 357 17 75 20 114 17 280 l-3 194 -40 3 c-38 2 -49 -5 -240
-163 -110 -90 -222 -190 -248 -222 -93 -110 -259 -271 -286 -276 -42 -8 -90
18 -106 58 -32 76 26 131 264 251 86 44 142 84 314 226 115 95 219 178 231
185 26 15 130 17 157 3z m-4360 -204 c46 -41 113 -104 149 -141 36 -37 150
-127 255 -202 105 -75 195 -142 202 -150 7 -10 11 -86 12 -238 1 -177 6 -243
20 -312 11 -49 24 -134 31 -190 9 -88 9 -106 -5 -132 -19 -37 -43 -51 -88 -51
-54 0 -89 40 -89 100 0 51 18 189 37 284 21 104 25 148 25 311 l0 190 -181
128 c-109 78 -208 140 -249 157 -116 48 -281 134 -311 162 -23 20 -29 35 -29
67 0 59 33 91 93 91 41 0 51 -6 128 -74z m2877 -343 c26 -20 92 -82 146 -138
96 -96 146 -134 449 -341 108 -74 127 -91 127 -113 0 -14 0 -257 0 -538 l0
-513 360 0 360 0 0 200 c0 162 -4 217 -19 288 -28 124 -54 327 -47 358 18 72
98 96 155 48 28 -23 31 -31 31 -82 0 -66 -24 -238 -42 -297 -6 -23 -14 -152
-17 -310 l-6 -270 -395 -3 c-217 -1 -405 0 -417 3 l-23 5 0 548 0 547 -226
155 c-161 110 -252 165 -313 190 -101 42 -257 124 -288 152 -48 45 -33 127 29
153 41 17 78 6 136 -42z m-507 -315 c24 -17 95 -83 157 -145 97 -96 153 -140
370 -290 142 -97 281 -193 310 -215 l52 -39 0 -545 0 -545 418 3 c349 3 428 6
487 20 113 28 302 48 335 36 54 -18 79 -97 45 -144 -29 -43 -63 -48 -202 -29
-70 9 -144 21 -163 28 -23 7 -197 13 -502 16 -256 4 -470 10 -475 14 -4 5 -10
259 -13 564 l-5 555 -290 201 c-219 151 -311 208 -375 234 -117 47 -286 139
-305 166 -24 35 -19 90 11 121 38 37 88 35 145 -6z m1676 -464 c136 -65 94
-275 -58 -291 -89 -9 -169 63 -169 152 0 117 119 190 227 139z m14 -427 c68
-45 90 -143 47 -207 -38 -55 -73 -75 -133 -75 -153 0 -213 198 -86 282 24 17
49 23 86 23 37 0 62 -6 86 -23z m-3646 -409 c81 -16 170 -23 340 -27 127 -3
236 -10 243 -14 9 -6 12 -72 12 -274 0 -205 3 -278 15 -324 9 -32 22 -105 30
-161 26 -185 18 -235 -42 -256 -42 -14 -75 -5 -107 30 -28 30 -28 33 -22 107
4 42 17 126 28 186 18 90 22 158 25 373 l4 263 -198 -4 c-158 -3 -218 -8 -298
-26 -55 -12 -144 -25 -197 -28 l-97 -6 -30 31 c-46 46 -38 116 16 147 34 19
113 14 278 -17z m3772 -844 c43 -32 63 -73 63 -124 0 -51 -20 -92 -63 -124
-49 -37 -102 -42 -156 -14 -65 34 -86 67 -86 138 0 71 21 104 86 138 54 28
107 23 156 -14z"/>
<path d="M14325 15230 c-171 -32 -325 -83 -445 -148 -107 -58 -278 -210 -264
-234 4 -7 4 -10 -1 -6 -4 4 -15 -3 -24 -15 -26 -35 -63 -107 -55 -107 4 0 0
-8 -9 -17 -8 -10 -17 -32 -20 -50 -3 -17 -7 -35 -10 -40 -3 -4 -12 -51 -21
-103 -20 -113 -29 -145 -69 -230 -17 -36 -30 -69 -29 -73 2 -5 -1 -6 -6 -3 -5
3 -23 -12 -41 -34 -20 -26 -54 -50 -99 -70 -110 -51 -125 -61 -169 -109 -47
-51 -89 -128 -100 -187 -4 -22 -8 -2887 -8 -6369 0 -5343 2 -6335 14 -6360 7
-16 15 -41 16 -55 4 -36 59 -151 86 -180 13 -14 26 -30 28 -35 8 -21 54 -75
59 -70 3 3 11 -3 18 -14 14 -19 138 -98 164 -103 8 -2 17 -5 20 -8 9 -10 122
-42 127 -36 4 3 12 1 18 -4 16 -14 142 -29 237 -30 78 0 224 17 243 28 5 3 16
7 25 8 60 8 92 15 121 27 19 8 39 15 44 15 50 8 75 15 75 22 0 4 6 7 13 7 23
-2 97 24 97 34 0 6 4 8 9 4 5 -3 12 -1 15 4 3 5 18 12 33 16 16 3 36 14 47 23
10 9 19 15 20 12 1 -3 21 4 44 14 23 10 39 23 36 28 -3 5 -2 8 3 7 18 -3 32 2
45 15 8 7 29 21 46 30 19 10 30 21 26 28 -5 7 -3 8 5 3 8 -4 29 11 59 41 26
27 40 40 32 29 -14 -20 -14 -20 7 -1 13 10 20 23 16 29 -3 5 -1 7 4 4 6 -4 22
4 37 18 14 13 26 21 26 17 0 -4 4 -2 8 3 4 6 23 22 42 35 19 13 41 31 48 40 8
8 11 9 7 2 -3 -7 13 1 37 17 64 42 165 95 238 123 36 14 74 29 85 33 23 9 30
10 100 20 28 4 57 9 65 12 8 4 18 6 22 5 11 -2 198 37 209 44 6 3 25 8 42 11
18 3 57 14 87 25 30 10 62 21 72 23 9 2 30 11 47 19 17 9 31 14 31 11 0 -3 15
2 33 12 17 9 37 18 43 19 29 5 193 88 188 95 -3 5 2 6 10 3 9 -3 16 -1 16 5 0
6 6 10 13 8 6 -1 11 3 10 10 -2 7 3 10 11 7 7 -3 26 6 42 19 16 13 37 26 47
30 9 3 17 11 17 17 0 5 16 16 36 25 22 9 33 19 28 26 -4 7 -3 9 4 5 6 -3 29
11 52 33 23 22 45 41 48 42 4 2 30 25 57 53 28 27 44 46 37 42 -8 -5 7 13 33
38 25 26 43 51 40 56 -3 6 -2 10 4 10 12 0 70 88 107 163 14 28 32 64 40 79 9
16 13 28 10 28 -2 0 6 26 19 58 20 50 33 105 59 252 6 33 64 197 83 235 25 49
70 108 135 176 73 79 128 146 108 134 -8 -5 0 6 18 24 46 46 219 340 226 385
1 6 10 23 19 37 10 15 17 31 15 35 -1 5 8 29 21 52 12 24 20 50 17 58 -3 8 -1
14 4 14 5 0 6 7 3 17 -4 11 -3 14 5 9 7 -4 12 -5 12 -2 0 3 11 49 25 102 13
54 22 101 19 106 -3 5 -1 15 5 22 6 7 13 39 15 70 2 32 7 60 9 63 3 3 6 91 7
196 1 217 7 244 77 313 47 46 111 95 99 75 -6 -8 1 -7 18 4 14 10 26 20 26 24
0 4 14 15 31 25 37 22 328 306 314 306 -6 0 2 10 16 23 34 29 109 122 109 135
0 5 7 15 15 22 9 7 13 15 10 18 -3 3 4 11 15 19 11 8 20 18 20 23 0 5 16 36
36 69 37 62 108 240 99 249 -3 3 -1 10 4 16 5 6 15 51 22 99 15 109 3 209 -41
336 -36 105 -35 119 27 210 24 36 42 70 40 75 -2 6 3 17 10 25 8 7 12 20 9 27
-3 8 -1 14 4 14 30 0 61 307 41 415 -7 33 -12 67 -12 75 -2 25 -36 152 -58
212 -25 69 -28 172 -6 273 19 92 19 179 -2 246 -21 70 -19 83 34 219 25 63 46
125 47 137 0 13 5 23 10 23 4 0 6 7 3 15 -4 8 -3 17 2 19 4 3 14 31 21 63 12
56 16 75 24 127 2 14 6 28 9 33 11 18 38 209 52 369 14 170 44 338 71 403 8
18 12 37 9 41 -3 5 -2 10 2 12 5 1 19 30 32 63 13 33 37 79 53 103 16 23 27
46 23 51 -3 5 -1 11 4 13 4 1 21 39 36 83 23 66 29 102 33 203 7 179 -29 326
-119 489 -60 110 -177 265 -192 257 -7 -4 -9 -4 -5 1 9 10 -42 76 -53 69 -5
-3 -8 0 -7 8 2 7 -3 12 -10 10 -8 -1 -11 2 -8 7 8 12 -84 92 -97 84 -5 -3 -7
-2 -4 4 8 13 -37 56 -48 46 -4 -5 -6 -3 -3 2 7 13 -27 77 -36 68 -4 -4 -4 1 0
11 6 15 4 17 -6 11 -8 -5 -11 -4 -7 2 3 5 1 27 -4 49 -14 52 -13 112 2 181 15
70 13 61 28 98 16 39 41 167 34 178 -2 4 0 13 5 20 10 12 22 168 12 162 -3 -2
-5 29 -6 69 -1 152 -59 288 -172 404 -29 29 -57 50 -62 47 -6 -4 -9 -1 -8 6 3
13 -141 91 -153 83 -4 -2 -9 -1 -11 3 -4 11 -80 49 -91 45 -5 -1 -6 2 -3 7 3
5 -7 17 -22 27 -33 21 -72 62 -72 75 0 6 -5 7 -10 4 -6 -4 -9 -3 -8 2 4 10
-44 107 -55 111 -4 2 -5 7 -2 12 3 4 -1 37 -8 72 -14 65 -14 76 3 188 10 65 3
281 -9 290 -3 3 -7 16 -8 30 -3 50 -14 104 -23 115 -6 7 -8 14 -5 17 14 14
-91 262 -107 252 -4 -3 -5 1 -2 9 3 8 -2 20 -11 27 -8 7 -15 18 -15 26 0 7
-17 30 -37 51 -21 20 -31 33 -23 28 24 -14 -77 95 -145 157 -35 32 -68 58 -73
58 -6 0 -12 4 -14 8 -11 27 -193 128 -318 177 -101 39 -251 90 -265 90 -5 0
-12 3 -15 6 -3 3 -36 20 -73 38 -38 17 -86 43 -108 57 -22 13 -45 22 -51 18
-7 -4 -8 -3 -4 4 4 7 3 12 -3 12 -6 0 -36 18 -67 40 -31 22 -62 37 -68 33 -6
-3 -8 -3 -4 2 7 8 -77 80 -93 80 -4 0 -24 16 -46 36 -21 19 -41 36 -45 37 -4
2 -20 15 -35 30 -16 15 -60 56 -98 92 -39 36 -97 96 -130 134 -136 158 -387
389 -421 389 -7 0 -12 4 -11 8 2 7 -97 79 -108 79 -4 0 -22 12 -41 26 -19 15
-37 24 -41 21 -3 -4 -11 0 -17 7 -15 20 -147 87 -157 80 -5 -3 -9 0 -9 5 0 6
-5 11 -11 11 -5 0 -36 12 -67 26 -31 15 -67 26 -79 26 -13 0 -20 5 -16 11 4 6
0 8 -10 4 -10 -3 -17 -3 -17 2 0 5 -12 11 -27 14 -16 2 -56 12 -90 21 -59 16
-94 23 -158 32 -16 3 -57 9 -90 13 -97 15 -253 11 -360 -9z m387 -190 c472
-46 812 -243 970 -563 124 -251 287 -486 435 -628 126 -121 238 -182 357 -194
l69 -8 -34 -14 c-148 -63 -394 -76 -551 -29 -186 55 -269 108 -469 301 -132
128 -157 147 -243 190 -91 45 -101 48 -179 48 -74 1 -89 -2 -149 -32 -37 -18
-129 -83 -204 -143 -249 -201 -368 -265 -543 -289 -169 -24 -287 11 -407 123
-145 136 -214 345 -185 563 35 262 176 457 418 579 78 39 215 82 303 95 77 12
297 12 412 1z m501 -1124 c98 -33 125 -47 159 -83 54 -57 64 -144 24 -229 -42
-90 -109 -121 -193 -89 -33 13 -72 43 -127 99 -96 97 -137 119 -231 124 -79 4
-151 -17 -226 -68 -24 -16 -45 -27 -47 -25 -2 2 9 27 25 56 60 112 169 202
283 234 82 23 233 14 333 -19z m-1642 -90 c47 -20 96 -61 114 -97 19 -36 19
-125 0 -180 -9 -23 -33 -65 -54 -93 -65 -85 -120 -216 -90 -216 6 0 33 19 59
43 100 90 233 139 374 138 88 -1 201 -27 270 -64 l41 -22 -131 -7 c-328 -17
-513 -127 -589 -348 -65 -187 18 -600 170 -851 19 -31 35 -60 35 -63 0 -19
-72 40 -159 129 -197 203 -343 475 -435 810 -80 292 -100 507 -57 617 43 111
122 184 230 215 56 16 173 10 222 -11z m2159 -236 c117 -34 211 -101 272 -194
163 -250 54 -621 -218 -742 -108 -48 -275 -66 -408 -44 -33 5 -62 7 -65 4 -10
-10 43 -43 118 -75 98 -41 231 -62 341 -55 47 3 131 8 187 12 67 4 125 2 165
-6 132 -25 269 -125 340 -247 60 -102 71 -139 76 -259 6 -149 -15 -219 -95
-304 -104 -112 -265 -161 -528 -161 -167 0 -284 25 -418 91 -198 96 -341 250
-464 499 -42 86 -108 202 -146 260 -90 134 -249 299 -339 353 -250 148 -512
117 -755 -89 -59 -49 -63 -44 -34 40 56 163 172 318 283 379 106 58 162 71
308 71 114 0 150 -4 232 -26 119 -33 231 -77 323 -127 39 -21 113 -53 165 -71
83 -28 109 -32 200 -33 83 0 117 4 162 21 173 64 210 187 81 269 -68 43 -102
83 -119 142 -21 71 -12 143 26 209 33 57 78 90 142 102 51 9 80 6 168 -19z
m1195 -11 c88 -12 213 -55 296 -102 245 -137 402 -391 450 -724 13 -96 7 -394
-11 -523 -17 -113 -17 -398 -1 -480 28 -142 68 -217 136 -250 37 -18 48 -19
92 -10 66 15 87 35 113 117 31 96 90 153 158 153 71 0 181 -111 224 -225 19
-50 23 -79 23 -175 0 -97 -5 -128 -27 -200 -49 -154 -138 -274 -249 -335 -49
-27 -62 -30 -150 -30 -93 0 -98 1 -183 43 -213 106 -356 318 -401 597 -8 50
-15 109 -15 133 0 64 -16 50 -38 -35 -38 -143 -47 -215 -47 -388 1 -239 36
-387 144 -610 92 -187 95 -291 11 -373 -107 -106 -306 -90 -419 34 -62 67 -95
149 -115 287 -47 314 22 708 200 1143 167 412 150 698 -56 905 -116 116 -224
166 -455 210 -185 35 -289 99 -345 213 -122 248 1 527 270 615 94 30 224 33
395 10z m-2260 -73 c42 -18 75 -69 75 -115 0 -51 -63 -111 -118 -111 -51 0
-97 36 -113 90 -15 51 11 107 61 132 42 22 51 22 95 4z m520 -125 c69 -31 115
-104 115 -182 0 -14 -12 -49 -26 -77 -35 -70 -88 -102 -168 -102 -67 0 -101
15 -144 64 -135 154 37 382 223 297z m1102 -581 c124 -75 55 -276 -89 -257
-69 9 -114 52 -125 120 -7 45 25 115 64 139 38 24 110 23 150 -2z m-1973 -234
c195 -66 381 -226 554 -479 96 -140 189 -386 228 -608 23 -130 25 -162 22
-370 -2 -154 -7 -232 -14 -239 -9 -9 -14 -1 -19 31 -14 79 -76 262 -125 364
-67 139 -140 246 -236 342 -93 93 -157 137 -281 192 -242 106 -432 208 -503
268 -78 65 -139 210 -125 296 16 100 102 188 225 228 46 16 192 2 274 -25z
m2199 -15 c93 -64 193 -195 249 -327 72 -168 98 -332 98 -611 0 -298 -36 -562
-121 -890 -51 -194 -60 -252 -61 -388 -1 -140 12 -206 58 -297 94 -185 307
-267 536 -209 107 28 173 64 243 135 95 94 145 220 145 360 0 254 100 395 281
396 112 0 199 -52 245 -147 27 -53 29 -67 28 -163 -1 -119 -20 -189 -80 -300
-149 -271 -452 -436 -841 -457 -65 -3 -113 -10 -113 -16 0 -6 42 -53 93 -106
191 -198 294 -400 331 -653 20 -130 20 -185 1 -313 -31 -218 -104 -402 -206
-519 -60 -69 -186 -126 -280 -126 -20 0 -65 9 -100 20 -80 24 -127 68 -171
158 -31 63 -33 73 -32 172 1 146 35 253 128 404 75 120 98 194 97 312 -1 166
-27 219 -185 384 -94 98 -144 168 -205 282 -80 151 -131 326 -131 454 0 100
-34 71 -77 -66 -35 -110 -43 -155 -43 -254 0 -239 98 -463 296 -678 87 -95 99
-124 99 -234 0 -84 -3 -95 -37 -165 -45 -90 -111 -159 -186 -196 -74 -36 -181
-39 -255 -5 -170 76 -319 267 -377 482 -35 127 -33 347 3 520 56 266 181 575
339 838 28 46 47 86 44 89 -8 9 -99 -31 -150 -66 -94 -65 -199 -227 -228 -351
-18 -80 -81 -167 -145 -203 -42 -23 -64 -29 -113 -28 -104 0 -160 49 -168 146
-4 48 0 65 27 120 34 69 142 186 261 284 280 230 539 539 682 811 81 154 121
266 159 445 66 312 4 680 -157 933 -19 28 -31 52 -28 52 3 0 24 -13 47 -29z
m-3039 -457 c172 -171 360 -279 661 -378 283 -94 439 -180 562 -309 217 -228
311 -475 274 -714 -18 -108 -54 -184 -113 -238 -108 -97 -256 -103 -421 -17
-122 63 -220 203 -248 352 -57 315 -145 460 -351 580 -220 129 -390 358 -492
664 -35 103 -76 268 -76 303 0 9 23 -19 52 -62 28 -44 96 -125 152 -181z
m-273 -395 c376 -251 646 -588 778 -972 78 -226 165 -356 316 -470 126 -95
310 -171 464 -192 51 -7 54 -8 35 -22 -10 -9 -44 -27 -74 -41 -48 -23 -68 -26
-165 -26 -116 0 -174 12 -284 60 -29 13 -55 24 -57 24 -12 0 0 -40 27 -96 30
-60 71 -106 195 -218 28 -25 63 -68 77 -95 68 -124 91 -349 47 -466 -66 -177
-226 -328 -425 -404 -122 -46 -268 -54 -393 -23 -101 26 -233 87 -318 147
-136 97 -267 312 -316 515 -18 79 -16 289 5 378 35 148 83 253 194 419 86 131
135 237 169 371 20 80 25 121 25 233 -1 190 -33 329 -120 514 -62 132 -121
221 -268 404 -32 40 -30 39 88 -40z m3297 -222 c15 -14 22 -32 22 -56 0 -41
-5 -51 -40 -74 -36 -25 -68 -21 -101 12 -83 84 31 198 119 118z m-1002 4 c23
-10 54 -36 70 -57 26 -33 29 -45 29 -110 0 -66 -3 -76 -31 -111 -42 -51 -107
-78 -167 -69 -187 28 -217 289 -40 351 52 19 91 18 139 -4z m585 -37 c67 -20
148 -97 167 -160 28 -95 9 -183 -55 -254 -165 -184 -469 -42 -438 205 12 97
89 186 183 211 63 17 79 17 143 -2z m-424 -425 c72 -28 144 -94 180 -166 22
-45 27 -70 27 -132 1 -130 -62 -234 -176 -291 -54 -26 -72 -30 -145 -30 -70 0
-92 4 -134 25 -71 37 -124 88 -156 153 -39 80 -40 192 -2 273 40 86 117 152
209 180 50 15 138 9 197 -12z m1949 -175 c65 -31 85 -118 39 -172 -75 -90
-205 -47 -205 68 0 52 13 76 53 100 39 24 68 25 113 4z m944 -384 c60 -31 90
-82 90 -155 0 -72 -21 -112 -80 -151 -114 -75 -270 9 -270 145 0 138 138 223
260 161z m-3442 -81 c106 -52 132 -188 54 -281 -69 -81 -219 -76 -281 10 -20
29 -42 105 -36 126 2 6 6 23 9 38 8 36 62 97 101 114 44 20 103 17 153 -7z
m3405 -391 c105 -40 163 -96 217 -210 111 -236 88 -518 -71 -858 -50 -107
-138 -260 -149 -260 -3 0 -3 35 2 78 8 85 -5 234 -28 327 -39 152 -116 282
-245 416 -96 99 -142 170 -163 250 -25 98 7 183 91 242 91 65 206 69 346 15z
m-3186 -144 c117 -27 207 -77 292 -163 88 -89 131 -157 178 -282 88 -234 84
-460 -12 -654 -120 -240 -350 -416 -705 -535 -46 -16 -86 -33 -88 -38 -1 -5
30 -14 69 -21 141 -26 295 -128 379 -251 98 -144 138 -259 147 -420 20 -393
-135 -664 -448 -782 -74 -28 -99 -32 -214 -36 -144 -5 -217 8 -311 53 -72 35
-146 112 -186 192 -30 62 -33 75 -33 163 0 85 3 100 27 141 67 114 202 174
423 186 117 7 152 21 185 75 72 120 -10 340 -157 420 -177 97 -459 16 -659
-189 -142 -145 -241 -338 -322 -623 -17 -59 -14 149 4 284 61 471 263 819 579
1001 41 24 105 75 156 126 74 74 94 102 138 190 73 146 95 257 88 439 -4 101
-12 161 -32 240 -21 81 -26 120 -23 172 12 155 111 261 289 308 91 23 148 25
236 4z m2643 -99 c58 -30 79 -119 39 -169 -11 -14 -34 -33 -51 -42 -26 -14
-37 -14 -75 -3 -55 15 -83 54 -83 118 0 37 5 49 36 77 40 38 85 45 134 19z
m-395 -206 c214 -44 414 -146 546 -280 81 -81 109 -128 134 -224 56 -218 -46
-349 -253 -323 -85 10 -141 35 -195 87 -69 65 -87 115 -117 321 -14 101 -80
234 -165 334 -36 41 -74 80 -85 86 -11 6 -20 14 -20 19 0 10 19 7 155 -20z
m-2958 -655 c28 -8 56 -65 47 -100 -7 -27 -56 -64 -87 -64 -10 0 -32 13 -48
29 -68 69 -9 161 88 135z m-301 -255 c37 -22 74 -91 74 -135 -1 -46 -35 -112
-72 -134 -99 -60 -217 -16 -248 93 -39 141 120 254 246 176z m3830 -60 c103
-32 156 -62 207 -119 127 -141 138 -417 26 -659 -107 -230 -325 -465 -539
-583 -33 -18 -60 -36 -60 -40 0 -5 21 -8 48 -8 128 -1 311 -44 431 -102 227
-109 296 -294 207 -556 -55 -160 -136 -244 -263 -272 -132 -30 -228 73 -247
265 -17 163 -64 291 -137 371 -90 97 -178 109 -354 50 -201 -68 -531 -147
-710 -170 l-50 -7 66 39 c333 197 592 456 720 717 70 143 97 260 109 469 13
223 34 323 92 440 38 75 105 139 171 165 73 28 193 28 283 0z m-4518 -29 c219
-52 344 -158 382 -322 40 -174 -59 -433 -259 -682 -175 -217 -442 -454 -610
-541 -33 -16 -34 -16 -28 2 4 10 29 83 56 163 65 190 81 268 88 426 7 164 -2
205 -78 366 -125 265 -126 384 -4 503 103 99 265 130 453 85z m2733 -158 c113
-30 251 -129 320 -229 47 -68 97 -175 121 -260 29 -103 32 -312 5 -421 -60
-247 -198 -478 -432 -721 -98 -102 -265 -255 -298 -273 -18 -9 -18 -6 6 33 97
157 158 319 183 481 17 111 14 193 -13 313 -28 130 -137 329 -223 410 -45 42
-110 139 -133 199 -29 77 -27 188 6 259 44 97 148 179 268 211 70 19 110 19
190 -2z m-671 -67 c16 -8 42 -32 57 -52 25 -32 28 -45 28 -109 0 -81 -15 -111
-75 -151 -118 -81 -279 5 -280 150 0 139 145 227 270 162z m1560 -472 c78 -49
110 -106 110 -196 0 -84 -37 -144 -112 -181 -106 -53 -213 -24 -280 76 -23 34
-28 52 -28 105 0 103 54 180 147 210 46 15 129 8 163 -14z m-2568 -33 c108
-30 161 -156 109 -258 -28 -56 -73 -85 -137 -90 -69 -6 -96 2 -138 39 -105 92
-74 254 59 306 38 15 61 15 107 3z m1112 -109 c60 -42 145 -136 190 -212 82
-138 136 -366 136 -576 0 -170 -39 -278 -132 -372 -110 -111 -220 -158 -343
-148 -98 7 -163 54 -210 150 -75 154 -23 287 131 337 136 43 196 83 249 164
94 141 85 341 -26 575 -27 57 -49 105 -49 107 0 9 14 2 54 -25z m2754 -17 c16
-11 22 -25 22 -54 0 -29 -6 -43 -22 -54 -34 -24 -73 -20 -97 10 -27 35 -26 59
4 89 28 29 61 32 93 9z m-142 -223 c162 -73 116 -311 -59 -311 -102 0 -167 62
-167 158 0 82 33 131 107 158 51 18 71 17 119 -5z m-4199 -132 c66 -25 98 -90
73 -150 -19 -45 -56 -69 -105 -69 -147 0 -150 204 -3 229 4 0 19 -4 35 -10z
m2860 -43 c28 -30 33 -43 33 -86 0 -43 -5 -56 -33 -86 -28 -30 -42 -37 -83
-41 -65 -6 -113 24 -134 85 -13 37 -13 47 0 84 21 61 69 91 134 85 41 -4 55
-11 83 -41z m-3382 -90 c66 -28 95 -119 59 -187 -23 -45 -91 -73 -142 -60 -57
16 -102 72 -102 128 0 42 32 94 71 115 41 22 68 23 114 4z m-210 -301 c112
-30 247 -121 320 -218 105 -139 129 -322 63 -481 -63 -151 -234 -347 -370
-422 -91 -51 -233 -108 -318 -128 -96 -23 -102 -19 -34 19 169 96 250 226 223
357 -15 71 -38 107 -136 212 -124 132 -186 277 -168 390 20 115 71 194 156
240 88 49 162 57 264 31z m4183 -84 c17 -12 38 -41 48 -66 14 -39 15 -52 5
-87 -23 -77 -94 -119 -175 -104 -47 9 -81 38 -101 88 -27 69 1 148 66 181 44
23 116 17 157 -12z m-3190 -173 c151 -53 251 -222 222 -377 -43 -235 -284
-358 -497 -255 -119 58 -202 203 -190 334 9 107 76 217 165 272 84 52 198 62
300 26z m2741 -12 c123 -34 211 -95 285 -199 58 -82 80 -150 74 -230 -7 -81
-38 -145 -106 -219 -77 -83 -116 -101 -208 -96 -65 3 -78 7 -130 43 -36 25
-83 73 -126 130 -82 107 -135 157 -203 193 -67 35 -151 36 -214 3 -132 -69
-244 -246 -265 -421 -4 -30 -10 -68 -13 -84 l-5 -30 -14 26 c-41 79 -56 265
-30 365 43 161 156 307 321 417 75 50 217 101 320 116 80 12 247 4 314 -14z
m-1921 -105 c46 -23 67 -46 87 -94 20 -49 19 -100 -4 -145 -36 -71 -87 -102
-167 -102 -145 0 -228 162 -147 287 44 66 156 92 231 54z m-375 -131 c6 -90
-5 -259 -24 -375 -23 -141 -87 -305 -159 -410 -48 -69 -155 -160 -243 -206
-199 -103 -380 -233 -503 -361 -128 -134 -192 -242 -215 -368 -36 -198 -100
-306 -221 -370 -54 -29 -75 -35 -148 -38 -102 -5 -180 20 -243 77 -56 50 -77
101 -77 186 0 127 34 216 118 306 99 107 233 180 423 230 129 34 176 56 239
115 51 48 100 131 100 170 0 22 -4 24 -47 24 -71 0 -174 25 -240 57 -54 26
-183 137 -172 148 3 2 50 -7 105 -22 82 -21 127 -27 263 -31 172 -4 236 3 351
40 314 102 538 378 646 800 38 149 40 150 47 28z m2930 -21 c19 -24 22 -70 6
-101 -29 -55 -125 -53 -154 3 -18 34 -19 50 -4 83 26 55 111 64 152 15z
m-1729 -106 c-69 -175 -114 -370 -114 -495 0 -80 26 -204 55 -263 81 -166 196
-232 435 -251 199 -15 326 50 381 195 18 47 20 70 16 145 -9 139 23 191 117
191 41 0 63 -7 102 -30 199 -124 107 -517 -151 -640 -92 -44 -167 -58 -300
-58 -110 1 -173 9 -293 40 -34 9 -65 13 -69 10 -3 -4 11 -43 31 -88 48 -104
100 -261 123 -369 25 -119 25 -382 -1 -500 -24 -111 -58 -205 -113 -312 -52
-102 -107 -162 -182 -196 -147 -67 -380 27 -420 171 -34 119 34 293 190 487
68 85 132 208 149 291 8 33 11 95 8 150 -6 107 -30 181 -83 256 -137 194 -190
293 -230 429 -82 279 -12 549 202 781 56 61 153 142 170 143 6 0 -3 -35 -23
-87z m-440 -17 c69 -29 88 -108 41 -164 -32 -39 -72 -48 -119 -28 -66 27 -83
117 -33 164 17 17 54 37 75 41 1 1 18 -5 36 -13z m1111 -75 c110 -50 148 -186
79 -284 -81 -114 -265 -104 -324 19 -81 165 81 340 245 265z m1297 -82 c128
-28 216 -93 252 -185 10 -28 20 -88 23 -139 9 -150 -42 -309 -144 -454 -99
-139 -292 -307 -493 -426 -116 -69 -213 -146 -315 -249 -166 -167 -247 -312
-279 -497 l-14 -74 -21 48 c-53 116 -68 352 -31 498 44 177 122 317 260 464
136 146 212 248 268 360 53 105 64 153 72 295 5 74 13 151 19 171 13 43 77
119 125 148 72 45 181 60 278 40z m-2695 -65 c71 -34 117 -90 138 -169 19 -70
13 -121 -25 -195 -60 -118 -224 -167 -348 -103 -214 109 -179 427 55 488 61
16 114 10 180 -21z m-1368 -131 c103 -76 60 -234 -67 -247 -91 -10 -167 86
-140 176 26 87 134 124 207 71z m3486 -144 c66 -59 64 -160 -5 -209 -109 -78
-252 27 -210 154 18 55 64 86 127 86 44 0 58 -5 88 -31z m-848 -42 c28 -27 39
-81 24 -119 -31 -81 -157 -79 -192 3 -42 103 90 194 168 116z m-1708 -165 c49
-36 71 -80 71 -142 0 -98 -59 -161 -157 -167 -75 -5 -127 23 -160 86 -29 56
-29 106 0 162 48 90 167 120 246 61z m1488 -44 c42 -39 23 -118 -32 -132 -29
-7 -79 15 -89 39 -32 84 58 153 121 93z m-1267 -100 c303 -460 330 -834 78
-1063 -116 -106 -264 -160 -443 -159 -142 0 -200 21 -289 104 -108 101 -151
218 -127 347 30 164 125 265 314 333 260 95 395 260 385 474 -2 42 0 76 3 76
3 0 39 -51 79 -112z m-1847 28 c44 -18 95 -78 103 -122 15 -80 -47 -176 -122
-190 -107 -20 -194 43 -201 148 -5 69 24 122 86 155 50 26 87 29 134 9z m2201
-186 c206 -285 289 -549 242 -775 -22 -106 -51 -167 -130 -270 -73 -96 -140
-226 -157 -306 -30 -141 23 -274 133 -330 30 -15 59 -19 146 -19 131 0 154
-11 218 -107 96 -142 79 -329 -40 -446 -154 -152 -421 -153 -554 -2 -122 139
-202 430 -202 738 0 53 -4 97 -9 97 -15 0 -47 -59 -74 -135 -38 -108 -51 -208
-44 -353 12 -240 94 -487 267 -804 37 -67 48 -147 30 -211 -42 -152 -238 -261
-470 -261 -123 0 -203 22 -297 83 -121 78 -186 183 -235 378 -29 115 -32 337
-6 459 38 176 112 346 221 511 61 91 94 133 221 278 27 30 47 58 44 60 -2 3
-31 0 -64 -6 -143 -27 -365 19 -534 111 -135 74 -181 92 -243 97 -71 5 -117
-13 -150 -59 -27 -37 -26 -124 3 -201 29 -78 25 -191 -8 -257 -96 -187 -323
-262 -517 -172 -97 46 -186 138 -213 223 -32 97 -37 156 -18 229 41 158 174
276 412 365 102 38 249 77 362 95 l73 12 -8 57 c-16 111 -8 230 21 301 25 62
112 178 124 165 3 -3 6 -38 7 -78 5 -167 99 -335 259 -463 140 -111 252 -148
456 -147 157 0 249 19 415 83 180 71 288 159 351 285 45 93 58 165 51 300 -9
167 -57 324 -161 535 l-48 95 36 -40 c20 -22 60 -74 90 -115z m-906 -12 c33
-32 31 -99 -4 -127 -76 -60 -178 16 -136 100 31 61 91 72 140 27z m-259 -142
c73 -38 87 -142 27 -202 -30 -30 -40 -34 -85 -34 -44 0 -56 5 -89 34 -34 32
-37 39 -37 89 0 45 5 60 25 82 43 46 105 58 159 31z m2702 -22 c42 -21 64 -75
49 -119 -15 -44 -41 -66 -87 -71 -50 -6 -84 12 -106 59 -24 48 -9 100 37 128
38 23 67 24 107 3z m-207 -188 c131 -55 187 -212 120 -336 -32 -60 -71 -93
-133 -115 -55 -19 -96 -19 -152 0 -204 70 -219 355 -24 446 48 22 142 25 189
5z m697 -432 c28 -154 36 -455 15 -589 -21 -140 -59 -264 -116 -380 -83 -172
-191 -295 -350 -399 -170 -112 -301 -273 -440 -537 -82 -156 -142 -241 -222
-314 -198 -179 -469 -242 -748 -173 -210 52 -289 172 -240 363 36 142 103 226
226 282 53 24 75 28 214 34 174 8 224 21 327 88 78 50 140 127 198 247 87 178
206 263 429 309 151 31 215 55 296 110 74 50 111 93 145 168 28 60 44 167 26
167 -6 0 -11 -4 -11 -9 0 -5 -23 -35 -51 -65 -92 -101 -266 -168 -480 -185
-164 -13 -246 -58 -299 -164 -16 -33 -30 -66 -30 -73 0 -8 -19 -34 -43 -59
-40 -41 -47 -45 -93 -45 -63 0 -90 19 -120 84 -48 103 -27 256 47 340 82 93
185 132 389 147 155 12 279 36 377 75 270 107 451 322 509 606 10 48 20 86 22
84 1 -2 12 -52 23 -112z m-700 -200 c54 -27 99 -105 99 -169 -1 -32 -35 -97
-66 -127 -136 -127 -356 22 -290 195 40 106 158 152 257 101z m-2820 -317 c47
-36 51 -97 10 -138 -46 -46 -107 -33 -136 28 -14 29 -15 40 -4 64 6 16 21 36
33 44 25 18 75 19 97 2z m335 -157 c75 -47 114 -113 114 -195 0 -121 -104
-225 -225 -225 -119 0 -225 106 -225 225 0 87 70 186 150 213 52 17 143 8 186
-18z m-379 -436 c85 -28 163 -123 163 -199 0 -20 -13 -67 -30 -104 -39 -90
-51 -150 -51 -251 0 -125 34 -229 112 -347 11 -19 16 -33 10 -33 -19 0 -152
70 -216 113 -128 87 -233 218 -277 345 -18 54 -23 88 -23 177 0 104 2 113 32
170 67 128 158 170 280 129z m-689 -178 c88 -96 142 -193 247 -450 67 -162
258 -297 528 -371 78 -21 139 -77 168 -153 40 -106 9 -314 -60 -409 -72 -99
-215 -121 -393 -59 -136 47 -228 104 -323 201 -130 132 -208 299 -240 512 -17
112 -19 288 -5 383 12 76 14 286 4 360 -7 50 -6 52 13 42 10 -6 38 -31 61 -56z
m2841 -147 c33 -12 61 -52 61 -89 0 -33 -53 -80 -90 -80 -37 0 -90 47 -90 79
0 47 26 77 86 101 1 0 15 -5 33 -11z m587 -814 c-131 -270 -410 -478 -826
-613 -148 -48 -215 -64 -375 -91 -429 -73 -794 -251 -1114 -545 -102 -94 -151
-128 -244 -171 -305 -140 -735 -96 -925 94 -33 33 -67 80 -86 120 -27 59 -31
78 -34 178 -5 142 11 197 77 263 72 72 145 95 301 94 95 -1 148 -7 220 -25 73
-18 121 -23 210 -22 208 1 347 46 660 212 108 58 261 107 490 157 25 6 65 12
205 33 135 20 391 40 509 41 342 0 711 134 917 333 26 25 45 37 47 30 2 -7
-13 -47 -32 -88z m-2197 -169 c35 -37 37 -77 6 -114 -22 -26 -34 -32 -66 -32
-103 0 -122 142 -24 169 38 10 58 5 84 -23z m-1196 -162 c96 -50 88 -216 -13
-266 -47 -23 -85 -22 -135 2 -72 35 -106 130 -71 198 43 83 133 110 219 66z"/>
</g>
</svg>
