<?xml version="1.0" standalone="no"?>
<!DOCTYPE svg PUBLIC "-//W3C//DTD SVG 20010904//EN"
 "http://www.w3.org/TR/2001/REC-SVG-20010904/DTD/svg10.dtd">
<svg version="1.0" xmlns="http://www.w3.org/2000/svg"
 width="256.000000pt" height="256.000000pt" viewBox="0 0 256.000000 256.000000"
 preserveAspectRatio="xMidYMid meet">
<metadata>
Created by potrace 1.15, written by Peter Selinger 2001-2017
</metadata>
<g transform="translate(0.000000,256.000000) scale(0.100000,-0.100000)"
fill="#000000" stroke="none">
<path d="M1942 2417 c-5 -6 -17 -26 -25 -43 -14 -28 -22 -32 -74 -38 -58 -7
-58 -7 -89 30 -36 42 -50 41 -121 -8 -47 -32 -50 -42 -28 -95 15 -35 14 -38
-10 -74 -14 -21 -25 -43 -25 -49 0 -5 -24 -10 -55 -10 l-54 0 -11 -41 c-6 -22
-10 -59 -8 -82 3 -40 5 -43 48 -56 42 -12 46 -17 63 -67 l18 -53 -27 -40 c-26
-40 -26 -41 -9 -68 22 -33 76 -83 90 -83 6 0 27 11 47 25 l37 25 55 -17 c51
-17 55 -20 61 -56 10 -57 25 -67 92 -60 84 8 93 15 93 71 1 45 2 48 48 76 42
26 50 27 77 16 61 -25 70 -23 96 12 14 18 31 48 39 67 13 33 13 35 -23 67 -35
32 -36 35 -30 89 6 53 8 57 45 76 49 25 54 37 34 97 -27 79 -35 86 -88 75 -46
-10 -47 -10 -87 31 -27 27 -39 48 -36 61 17 84 17 82 -33 103 -68 28 -98 34
-110 19z m-12 -322 c76 -39 80 -150 8 -196 -73 -45 -168 6 -168 92 0 51 13 75
53 99 39 24 68 25 107 5z"/>
<path d="M1134 1763 c-16 -49 -30 -90 -32 -92 -1 -3 -28 -8 -60 -11 -31 -4
-71 -10 -87 -14 -29 -6 -33 -3 -79 63 -26 38 -53 74 -60 80 -16 13 -61 -4
-154 -57 -63 -37 -64 -37 -58 -74 3 -20 18 -64 32 -97 l27 -61 -53 -58 c-30
-31 -57 -61 -61 -65 -4 -5 -48 2 -99 15 l-92 23 -18 -22 c-10 -13 -32 -62 -49
-109 -37 -102 -39 -98 66 -156 l73 -40 0 -88 0 -88 -90 -43 c-49 -23 -90 -44
-90 -45 0 -44 65 -234 80 -234 12 0 161 29 180 35 11 3 20 -3 27 -17 6 -13 29
-44 52 -70 l42 -48 -40 -87 -40 -88 39 -36 c37 -34 147 -99 168 -99 6 0 34 30
63 67 29 38 56 72 59 76 4 5 34 1 68 -7 33 -9 71 -16 85 -16 19 0 26 -7 31
-27 4 -16 16 -58 27 -95 l20 -68 72 1 c40 0 95 6 122 13 l50 11 3 102 3 102
76 41 75 40 81 -54 c63 -44 84 -53 98 -46 20 12 104 106 132 150 l18 28 -64
74 -63 73 28 65 c15 36 28 72 28 81 0 13 15 18 68 23 37 4 83 9 104 12 l36 5
7 84 c4 45 4 101 0 123 -7 45 -2 43 -130 62 -38 6 -70 12 -70 13 0 1 -12 38
-26 83 l-26 80 68 72 69 72 -19 31 c-31 50 -124 159 -136 159 -10 0 -82 -41
-145 -82 -24 -16 -27 -16 -85 22 -101 66 -94 53 -84 155 9 79 8 91 -7 102 -22
16 -143 43 -192 43 l-39 0 -29 -87z m180 -356 c100 -50 173 -122 220 -219 144
-295 -34 -631 -359 -677 -231 -33 -462 119 -521 343 -8 28 -14 86 -14 129 0
134 50 247 153 345 98 92 186 123 338 119 100 -2 110 -4 183 -40z"/>
</g>
</svg>
