<?xml version="1.0" standalone="no"?>
<!DOCTYPE svg PUBLIC "-//W3C//DTD SVG 20010904//EN"
 "http://www.w3.org/TR/2001/REC-SVG-20010904/DTD/svg10.dtd">
<svg version="1.0" xmlns="http://www.w3.org/2000/svg"
 width="225.000000pt" height="225.000000pt" viewBox="0 0 225.000000 225.000000"
 preserveAspectRatio="xMidYMid meet">
<metadata>
Created by potrace 1.14, written by Peter Selinger 2001-2017
</metadata>
<g transform="translate(0.000000,225.000000) scale(0.100000,-0.100000)"
fill="#000000" stroke="none">
<path d="M951 1841 c-167 -337 -175 -351 -205 -356 -64 -11 -721 -105 -733
-105 -12 0 228 -240 481 -481 l70 -67 -33 -193 c-18 -107 -48 -279 -66 -384
-18 -104 -32 -191 -30 -193 1 -1 156 78 344 178 189 99 344 180 346 180 2 0
157 -81 346 -180 188 -99 343 -179 345 -178 1 2 -13 89 -31 193 -18 105 -48
277 -66 384 l-33 193 70 67 c250 238 493 481 482 481 -25 0 -760 109 -764 113
-3 2 -82 161 -177 352 l-172 347 -174 -351z m299 -246 c66 -135 122 -245 124
-245 13 0 494 -71 515 -76 22 -5 7 -23 -171 -202 l-195 -197 47 -265 c25 -146
45 -267 44 -269 -2 -2 -111 54 -242 123 -132 69 -243 126 -247 126 -4 0 -114
-56 -245 -125 -130 -69 -239 -125 -242 -125 -3 0 -1 24 4 52 6 29 27 151 47
270 l37 217 -193 193 c-156 156 -190 194 -176 200 10 4 117 21 238 38 121 17
235 34 253 37 33 5 37 12 152 249 65 134 121 244 125 244 4 0 60 -110 125
-245z"/>
</g>
</svg>
