<?xml version="1.0" standalone="no"?>
<!DOCTYPE svg PUBLIC "-//W3C//DTD SVG 20010904//EN"
 "http://www.w3.org/TR/2001/REC-SVG-20010904/DTD/svg10.dtd">
<svg version="1.0" xmlns="http://www.w3.org/2000/svg"
 width="225.000000pt" height="225.000000pt" viewBox="0 0 225.000000 225.000000"
 preserveAspectRatio="xMidYMid meet">
<metadata>
Created by potrace 1.14, written by Peter Selinger 2001-2017
</metadata>
<g transform="translate(0.000000,225.000000) scale(0.100000,-0.100000)"
fill="#000000" stroke="none">
<path d="M1100 2158 c-38 -15 -72 -39 -111 -79 l-57 -57 -178 54 c-99 29 -193
54 -209 54 -49 0 -71 -23 -94 -100 -24 -78 -20 -113 14 -136 13 -8 330 -107
705 -219 654 -197 683 -204 714 -191 28 12 37 24 55 77 27 82 27 120 -1 146
-19 17 -126 53 -390 129 -13 4 -18 16 -18 44 0 67 -38 149 -94 206 -91 90
-217 117 -336 72z m215 -87 c45 -20 91 -69 112 -118 17 -41 17 -87 1 -80 -7 2
-98 30 -203 61 -104 32 -192 60 -195 63 -7 7 60 63 95 79 44 19 142 17 190 -5z"/>
<path d="M492 883 l3 -568 27 -51 c15 -28 48 -70 73 -92 82 -72 89 -73 551
-70 465 3 448 0 531 91 83 90 78 42 81 685 l3 572 -636 0 -636 0 3 -567z m355
393 l28 -24 3 -429 c2 -235 0 -443 -3 -461 -13 -70 -91 -96 -140 -47 l-25 24
0 451 0 452 29 29 c36 36 70 37 108 5z m334 -5 l29 -29 0 -452 0 -451 -25 -24
c-45 -46 -125 -24 -140 38 -3 12 -4 219 -3 460 l3 439 28 24 c38 32 72 31 108
-5z m318 14 c16 -8 31 -22 35 -30 3 -9 6 -219 6 -466 l0 -450 -25 -24 c-32
-33 -78 -33 -110 0 l-25 24 0 454 c0 476 -1 471 45 495 27 15 41 15 74 -3z"/>
</g>
</svg>
